<svg xmlns="http://www.w3.org/2000/svg" width="64" height="64" viewBox="0 0 64 64"><rect width="100%" height="100%" fill="#FFD700"/><path fill="#8B0000" d="m16.62 29.12-.34.63q-.06.11-.12.16-.07.05-.17.05-.11 0-.23-.08t-.29-.17q-.17-.1-.4-.18-.23-.07-.54-.07-.28 0-.49.06-.21.07-.35.19t-.21.29-.07.37q0 .25.14.42t.38.29q.23.12.53.21.3.1.62.21.31.1.61.25.3.14.54.36.23.21.38.53.14.32.14.76 0 .49-.17.92t-.49.75q-.32.31-.79.5-.46.18-1.06.18-.35 0-.68-.07-.34-.07-.64-.19-.31-.12-.58-.3t-.48-.39l.39-.65q.05-.06.13-.11t.17-.05q.13 0 .27.1.15.1.35.23.2.12.47.23.26.1.64.1.57 0 .89-.27.31-.27.31-.79 0-.28-.14-.46t-.38-.3q-.23-.12-.53-.21t-.61-.18q-.31-.1-.61-.25-.3-.14-.54-.36-.23-.23-.37-.56-.15-.34-.15-.84 0-.39.16-.76.16-.38.46-.67t.74-.46q.44-.18 1.01-.18.64 0 1.18.2t.92.56m2.08 3.39h2.33q0-.24-.07-.45t-.2-.37q-.14-.16-.34-.25-.21-.1-.49-.1-.53 0-.84.31t-.39.86m3.15.75h-3.18q.03.39.14.68t.29.48.43.28.55.09.52-.07q.21-.07.38-.15.16-.09.28-.16t.24-.07q.15 0 .23.11l.35.45q-.2.24-.46.41-.25.16-.53.26-.28.09-.56.14-.29.03-.56.03-.54 0-1-.17-.46-.18-.8-.53-.34-.34-.53-.86-.2-.51-.2-1.19 0-.52.17-.98.17-.47.49-.81t.78-.54q.45-.2 1.03-.2.48 0 .89.16.41.15.71.45.29.3.46.73t.17.98q0 .29-.06.38-.06.1-.23.1m2.3-2.41.08.58q.24-.46.57-.72.33-.27.78-.27.35 0 .57.16l-.08.92q-.03.1-.07.13-.05.04-.13.04t-.22-.02q-.15-.03-.29-.03-.21 0-.37.06t-.28.17q-.13.11-.23.28-.1.15-.18.36v3.16h-1.24v-5.13h.73q.19 0 .26.07.08.06.1.24m6.29-.31h.98l-2.04 5.13h-1.12l-2.03-5.13h1.02q.14 0 .23.06.09.07.12.17l.99 2.74q.08.24.14.47t.11.46q.05-.23.11-.46t.14-.47l1.01-2.74q.04-.1.13-.17.09-.06.21-.06m1.67 0h1.24v5.13h-1.24zm1.41-1.5q0 .17-.06.3-.07.14-.17.25-.11.1-.26.17-.14.06-.31.06-.16 0-.3-.06-.14-.07-.25-.17-.1-.11-.16-.25-.07-.13-.07-.3 0-.16.07-.31.06-.14.16-.25.11-.1.25-.16.14-.07.3-.07.17 0 .31.07.15.06.26.16.1.11.17.25.06.15.06.31m5.09 2.13-.32.46q-.06.06-.11.1t-.15.04-.19-.05q-.09-.06-.21-.13-.13-.08-.3-.13-.17-.06-.43-.06-.32 0-.57.12-.24.11-.4.34-.17.21-.25.53-.08.31-.08.7 0 .41.09.74.09.31.25.53.17.22.4.33.24.12.53.12.3 0 .48-.08.18-.07.31-.16.12-.09.22-.16.09-.07.2-.07.15 0 .23.11l.35.45q-.2.24-.44.41-.24.16-.5.26-.26.09-.53.14-.27.03-.54.03-.48 0-.9-.17-.42-.18-.73-.52-.32-.34-.5-.83-.18-.5-.18-1.13 0-.56.16-1.04.16-.49.48-.84.31-.35.78-.55.46-.2 1.07-.2.57 0 1.01.18.43.19.77.53m1.8 1.34h2.33q0-.24-.07-.45t-.2-.37q-.14-.16-.34-.25-.21-.1-.49-.1-.53 0-.84.31t-.39.86m3.15.75h-3.18q.03.39.14.68t.29.48.43.28.55.09.52-.07q.21-.07.38-.15.16-.09.28-.16t.24-.07q.15 0 .23.11l.35.45q-.2.24-.46.41-.25.16-.53.26-.28.09-.56.14-.29.03-.56.03-.54 0-1-.17-.46-.18-.8-.53-.34-.34-.53-.86-.2-.51-.2-1.19 0-.52.17-.98.17-.47.49-.81t.78-.54q.45-.2 1.03-.2.48 0 .89.16.41.15.71.45.29.3.46.73t.17.98q0 .29-.06.38-.06.1-.23.1m4.39-.32h2.2v-2.36q0-.33.05-.74zm3.28 0h.91v.72q0 .1-.07.17-.06.07-.18.07h-.66v1.77h-1.08V33.9H47.1q-.12 0-.22-.07-.09-.08-.12-.2l-.13-.62 3.43-4.58h1.17z"/></svg>