<svg xmlns="http://www.w3.org/2000/svg" width="48" height="48" viewBox="0 0 48 48"><rect width="100%" height="100%" fill="#8B0000"/><path fill="#FFD700" d="M8.49 24.475h1.15l-.44-1.21-.07-.19q-.03-.11-.07-.24-.03.13-.07.24-.03.11-.06.2zm.92-2.26 1.42 3.62h-.52q-.09 0-.15-.04-.05-.05-.08-.11l-.27-.74h-1.5l-.27.74q-.02.05-.07.1-.06.05-.15.05H7.3l1.42-3.62zm3.69 1.37-.16.23-.05.05q-.03.02-.08.02t-.09-.03q-.05-.02-.11-.06t-.15-.07q-.08-.03-.21-.03-.16 0-.29.06-.12.06-.2.17t-.12.27q-.04.15-.04.35 0 .21.04.37.05.16.13.27.08.1.2.16t.26.06q.15 0 .24-.04t.16-.08q.06-.04.11-.08.04-.04.1-.04.07 0 .11.06l.18.23q-.1.12-.22.2t-.25.13-.27.07q-.13.02-.27.02-.24 0-.45-.09t-.36-.26q-.16-.17-.25-.42-.09-.24-.09-.56 0-.28.08-.52t.24-.42q.15-.18.39-.27.23-.1.53-.1.29 0 .51.09.21.09.38.26m1.03-1.46v1.42q.15-.14.33-.23.18-.08.42-.08.21 0 .38.07.16.07.27.2.11.12.16.3.06.18.06.4v1.63h-.62v-1.63q0-.24-.11-.37-.1-.13-.32-.13-.16 0-.3.08-.14.07-.27.2v1.85h-.62v-3.71zm2.22 1.15h.62v2.56h-.62zm.71-.75q0 .08-.03.15-.04.07-.09.12t-.13.08q-.07.03-.15.03t-.15-.03-.13-.08q-.05-.05-.08-.12t-.03-.15q0-.09.03-.16t.08-.12q.06-.06.13-.09t.15-.03.15.03q.08.03.13.09.05.05.09.12.03.07.03.16m1.03 1.73h1.17q0-.12-.04-.22-.03-.11-.1-.19t-.17-.13q-.1-.04-.24-.04-.27 0-.42.15-.16.15-.2.43m1.58.37h-1.59q.01.2.07.35.05.14.14.23.09.1.22.14.12.05.27.05t.26-.04q.11-.03.19-.07t.14-.08.12-.04q.08 0 .12.06l.17.23q-.1.12-.23.2-.12.08-.26.13t-.28.07q-.15.02-.28.02-.27 0-.5-.09t-.4-.26q-.17-.18-.27-.43-.1-.26-.1-.6 0-.26.09-.49.08-.23.24-.4.16-.18.39-.27.23-.1.52-.1.24 0 .44.07.21.08.36.23.14.15.23.36.08.22.08.5 0 .14-.03.19-.03.04-.11.04m2.43-1.35h.49l-1.02 2.56h-.56l-1.02-2.56h.51q.07 0 .12.03.04.03.06.08l.49 1.37q.04.12.07.24.03.11.06.23.02-.12.05-.23.03-.12.07-.24l.51-1.37q.02-.05.06-.08.05-.03.11-.03m1.3.98h1.17q0-.12-.04-.22-.03-.11-.1-.19t-.17-.13q-.1-.04-.24-.04-.27 0-.42.15-.16.15-.2.43m1.58.37h-1.59q.01.2.07.35.05.14.14.23.09.1.22.14.12.05.27.05t.26-.04q.11-.03.19-.07t.14-.08.12-.04q.08 0 .12.06l.17.23q-.1.12-.23.2-.12.08-.26.13t-.28.07q-.15.02-.28.02-.27 0-.5-.09t-.4-.26q-.17-.18-.27-.43-.1-.26-.1-.6 0-.26.09-.49.08-.23.24-.4.16-.18.39-.27.23-.1.52-.1.24 0 .44.07.21.08.36.23.14.15.23.36.08.22.08.5 0 .14-.03.19-.03.04-.11.04m1.22 1.21h-.62v-2.56h.38q.12 0 .16.11l.04.19q.07-.08.14-.14t.16-.11q.08-.04.18-.07.09-.02.21-.02.24 0 .4.13.15.13.23.34.06-.12.15-.21.09-.1.2-.15.11-.06.23-.09.12-.02.24-.02.21 0 .38.06.16.06.28.19.11.12.17.31.06.18.06.41v1.63h-.62v-1.63q0-.25-.11-.37-.11-.13-.31-.13-.1 0-.18.04-.08.03-.14.09t-.1.16q-.03.09-.03.21v1.63h-.62v-1.63q0-.26-.11-.38-.1-.12-.3-.12-.14 0-.25.07-.12.07-.22.18zm4.06-1.58h1.16q0-.12-.03-.22-.03-.11-.1-.19t-.17-.13q-.11-.04-.24-.04-.27 0-.42.15-.16.15-.2.43m1.57.37h-1.58q.01.2.07.35.05.14.14.23.09.1.22.14.12.05.27.05t.26-.04q.11-.03.19-.07t.14-.08.12-.04q.08 0 .11.06l.18.23q-.1.12-.23.2t-.26.13q-.14.05-.29.07-.14.02-.28.02-.26 0-.49-.09t-.4-.26q-.17-.18-.27-.43-.1-.26-.1-.6 0-.26.09-.49.08-.23.24-.4.16-.18.39-.27.23-.1.51-.1.25 0 .45.07.21.08.35.23.15.15.24.36.08.22.08.5 0 .14-.03.19-.03.04-.12.04m1.15-1.24.04.2q.08-.08.16-.14.09-.07.19-.12.09-.04.2-.07.11-.02.24-.02.21 0 .37.07.17.07.28.2.1.12.16.3t.06.4v1.63h-.62v-1.63q0-.24-.11-.37t-.33-.13q-.16 0-.3.08-.14.07-.26.2v1.85h-.62v-2.56h.38q.12 0 .16.11m3.14 2.49q-.34 0-.52-.19t-.18-.52v-1.43h-.26q-.05 0-.08-.04-.04-.03-.04-.09v-.25l.41-.06.13-.71q.02-.04.05-.07.04-.03.09-.03h.32v.81h.69v.44h-.69v1.39q0 .12.06.18.06.07.16.07.06 0 .1-.01t.07-.03q.02-.02.05-.03.02-.01.04-.01.03 0 .05.01.01.01.03.04l.19.3q-.14.12-.31.17-.18.06-.36.06m2.51-2.59-.33-.06q.04-.26.15-.45.1-.2.27-.33.16-.13.37-.2.2-.07.44-.07.25 0 .46.08.2.07.34.19.14.13.22.3.07.17.07.37 0 .17-.03.3-.04.13-.12.23-.07.1-.18.17-.1.06-.24.11.33.1.49.31t.16.53q0 .27-.1.48-.1.2-.27.34-.17.15-.4.22-.22.07-.47.07-.27 0-.48-.06-.2-.07-.35-.19t-.25-.3q-.11-.18-.18-.41l.27-.11q.11-.04.2-.02t.14.1q.04.09.1.17.05.08.12.15.08.07.18.11t.24.04q.16 0 .28-.05.11-.05.19-.14.08-.08.12-.18t.04-.2q0-.13-.03-.24t-.11-.18q-.09-.07-.25-.12-.17-.04-.44-.04v-.44q.22 0 .37-.04t.24-.11.13-.18q.03-.1.03-.22 0-.25-.14-.38-.14-.14-.38-.14-.11 0-.2.04-.1.03-.17.08-.07.06-.12.13-.05.08-.08.17-.04.12-.11.15-.07.04-.19.02"/></svg>